<?xml version="1.0" encoding="UTF-8" standalone="no"?>
<svg
   xmlns:dc="http://purl.org/dc/elements/1.1/"
   xmlns:cc="http://creativecommons.org/ns#"
   xmlns:rdf="http://www.w3.org/1999/02/22-rdf-syntax-ns#"
   xmlns:svg="http://www.w3.org/2000/svg"
   xmlns="http://www.w3.org/2000/svg"
   xmlns:sodipodi="http://sodipodi.sourceforge.net/DTD/sodipodi-0.dtd"
   xmlns:inkscape="http://www.inkscape.org/namespaces/inkscape"
   id="ICONS"
   viewBox="0 0 400 140"
   version="1.1"
   sodipodi:docname="disa-framework-overview-emulator.svg"
   inkscape:version="0.92.1 r15371">
  <metadata
     id="metadata87">
    <rdf:RDF>
      <cc:Work
         rdf:about="">
        <dc:format>image/svg+xml</dc:format>
        <dc:type
           rdf:resource="http://purl.org/dc/dcmitype/StillImage" />
        <dc:title>bot-framework-overview-emulator</dc:title>
      </cc:Work>
    </rdf:RDF>
  </metadata>
  <sodipodi:namedview
     pagecolor="#ffffff"
     bordercolor="#666666"
     borderopacity="1"
     objecttolerance="10"
     gridtolerance="10"
     guidetolerance="10"
     inkscape:pageopacity="0"
     inkscape:pageshadow="2"
     inkscape:window-width="1903"
     inkscape:window-height="1096"
     id="namedview85"
     showgrid="false"
     inkscape:zoom="1.695"
     inkscape:cx="225.11938"
     inkscape:cy="-14.11913"
     inkscape:window-x="2489"
     inkscape:window-y="-9"
     inkscape:window-maximized="1"
     inkscape:current-layer="ICONS" />
  <defs
     id="defs4">
    <style
       id="style2">.cls-1{fill:gray;}.cls-2{fill:#2e2e2e;}.cls-3{fill:#1a1a1a;}.cls-4{fill:#333;}.cls-13,.cls-15,.cls-5{fill:none;stroke-miterlimit:10;}.cls-5{stroke:#b3b3b3;stroke-linecap:round;stroke-width:1.5px;stroke-dasharray:3 3;}.cls-6{fill:#221f1f;}.cls-7{fill:#d1d3d4;}.cls-8{fill:#f1f2f2;}.cls-9{fill:#d83b01;}.cls-10{fill:#fff;}.cls-11{fill:#e57c56;}.cls-12{fill:#58595b;}.cls-13{stroke:#d83b01;stroke-width:2px;}.cls-14{fill:#80bceb;}.cls-15{stroke:#58595b;stroke-width:3px;}.cls-16{fill:#bcbec0;}</style>
  </defs>
  <title
     id="title6">bot-framework-overview-emulator</title>
  <polygon
     class="cls-1"
     points="142.2 125 48.6 125 54.6 118 136.6 118 142.2 125"
     id="polygon8" />
  <polygon
     class="cls-2"
     points="133.4 123 57.4 123 60.4 119 130.4 119 133.4 123"
     id="polygon10" />
  <path
     class="cls-3"
     d="M138.5,127h-86c-4,0-4-2-4-2h94S142.66,127,138.5,127Z"
     id="path12" />
  <polygon
     class="cls-3"
     points="101.8 114.05 85.8 114.05 87.4 102.85 100.2 102.85 101.8 114.05"
     id="polygon14" />
  <polygon
     class="cls-4"
     points="101.8 114.05 94 114.05 94 102.85 100.2 102.85 101.8 114.05"
     id="polygon16" />
  <ellipse
     class="cls-5"
     cx="200"
     cy="67.5"
     rx="131.81"
     ry="45"
     id="ellipse18" />
  <rect
     class="cls-6"
     x="34"
     y="37"
     width="122"
     height="67"
     rx="4"
     ry="4"
     id="rect20" />
  <rect
     class="cls-7"
     x="37"
     y="40"
     width="116"
     height="61"
     id="rect22" />
  <path
     class="cls-2"
     d="M117.63,117H70.77A1.69,1.69,0,0,1,69,115.41S72,113,72.14,113h43.33c1.8,0,3.94,2.41,3.94,2.41A1.69,1.69,0,0,1,117.63,117Z"
     id="path24" />
  <polygon
     class="cls-8"
     points="152.9 40.35 152.9 71.35 121.9 40.35 152.9 40.35"
     id="polygon26" />
  <polygon
     class="cls-1"
     points="353.2 125.25 259.6 125.25 265.6 118.25 347.6 118.25 353.2 125.25"
     id="polygon28" />
  <polygon
     class="cls-2"
     points="344.4 123 268.4 123 271.4 119 341.4 119 344.4 123"
     id="polygon30" />
  <path
     class="cls-3"
     d="M349.5,127h-86c-4,0-4-2-4-2h94S353.66,127,349.5,127Z"
     id="path32" />
  <polygon
     class="cls-3"
     points="312.8 114.05 296.8 114.05 298.4 102.85 311.2 102.85 312.8 114.05"
     id="polygon34" />
  <polygon
     class="cls-4"
     points="312.8 114.05 305 114.05 305 102.85 311.2 102.85 312.8 114.05"
     id="polygon36" />
  <rect
     class="cls-6"
     x="245"
     y="37"
     width="122"
     height="67"
     rx="4"
     ry="4"
     id="rect38" />
  <rect
     class="cls-7"
     x="248"
     y="40"
     width="116"
     height="61"
     id="rect40" />
  <path
     class="cls-2"
     d="M328.63,117H281.77a1.69,1.69,0,0,1-1.77-1.59s3-2.39,3.14-2.41h43.33c1.8,0,3.94,2.41,3.94,2.41A1.69,1.69,0,0,1,328.63,117Z"
     id="path42" />
  <polygon
     class="cls-8"
     points="363.9 40.35 363.9 71.35 332.9 40.35 363.9 40.35"
     id="polygon44" />
  <path
     class="cls-9"
     d="M326.48,90.3c-1.1,2-3.26,3.7-5.48,3.7H293c-2.22,0-4.38-1.75-5.48-3.7a6,6,0,0,1,.17-6.21c.59-1,2.09-3.37,3.86-6.09l.65-1c2.89-4.44,6.68-9.34,7.8-11V53s-2.12-2.25-2.07-3.2c.07-1.3.57-1.8,2.07-1.8h14c1.5,0,2,.5,2.07,1.8,0,1-2.07,3.2-2.07,3.2V66c.72,1.06,2.78,3.35,4.62,6.13h0c1,1.57,2.14,3.26,3.18,4.86l.65,1c1.77,2.72,3.27,5.08,3.86,6.09A6,6,0,0,1,326.48,90.3Z"
     id="path46" />
  <path
     class="cls-10"
     d="M312.6,51H301.94c-.37,0-.67-.45-.67-1h0c0-.55.3-1,.67-1H312.6c.37,0,.67.45.67,1h0C313.27,50.55,313,51,312.6,51Z"
     id="path48" />
  <path
     class="cls-11"
     d="M326.75,90.3c-1.1,2-3.26,3.7-5.48,3.7h-28c-2.22,0-4.38-1.75-5.48-3.7a6,6,0,0,1,.17-6.21c.59-1,2.09-3.37,3.86-6.09h30.9c1.77,2.72,3.27,5.08,3.86,6.09A6,6,0,0,1,326.75,90.3Z"
     id="path50" />
  <path
     class="cls-12"
     d="M93,49A21,21,0,1,1,72,70,21,21,0,0,1,93,49m0-3a24,24,0,1,0,24,24A24,24,0,0,0,93,46Z"
     id="path52" />
  <line
     class="cls-13"
     x1="94.63"
     y1="58.61"
     x2="98.33"
     y2="55.33"
     id="line54" />
  <line
     class="cls-13"
     x1="91.03"
     y1="58.61"
     x2="87.67"
     y2="55.33"
     id="line56" />
  <circle
     class="cls-9"
     cx="93"
     cy="61"
     r="4"
     id="circle58" />
  <circle
     class="cls-11"
     cx="93"
     cy="61"
     r="2"
     id="circle60" />
  <path
     class="cls-13"
     d="M97.15,64.26s5.33,1.33,5.33-6.67"
     id="path62" />
  <path
     class="cls-13"
     d="M100.14,66.75s5.33-1.33,5.33,6.67"
     id="path64" />
  <path
     class="cls-14"
     d="M101.67,74.67s2.84,0,2.67,4.67A4.48,4.48,0,0,1,103,82.67"
     id="path66" />
  <path
     class="cls-13"
     d="M85.94,66.67s-5.33-1.33-5.33,6.67"
     id="path68" />
  <path
     class="cls-13"
     d="M84.33,74.67s-2.84,0-2.67,4.67A4.48,4.48,0,0,0,83,82.67"
     id="path70" />
  <rect
     class="cls-9"
     x="84"
     y="62"
     width="18"
     height="24"
     rx="9"
     ry="9"
     id="rect72" />
  <path
     class="cls-11"
     d="M100,71v6a7,7,0,0,1-14,0V71a7,7,0,0,1,14,0Z"
     id="path74" />
  <path
     class="cls-13"
     d="M87.67,64s-5.33,1.33-5.33-6.67"
     id="path76" />
  <path
     class="cls-9"
     d="M93,64V84a7,7,0,0,1-7-7V71A7,7,0,0,1,93,64Z"
     id="path78" />
  <line
     class="cls-15"
     x1="109.41"
     y1="85.91"
     x2="77.59"
     y2="54.09"
     id="line80" />
  <path
     class="cls-16"
     d="M236.26,67.56l-5.21-1a20.86,20.86,0,0,0-.4-3.59l4.44-2.62a1.37,1.37,0,0,0,.84-1.84l-1.17-3.25a1.18,1.18,0,0,0-1.66-.64l-5.3.89-1.56-2.89,3.19-4a1.41,1.41,0,0,0,.08-1.87L227,44a1.69,1.69,0,0,0-1.88-.08l-4.27,2.81c-.91-.6-2-1.4-2.91-2l1.37-5.2a1.29,1.29,0,0,0-.68-1.54l-3.13-1.45a1.19,1.19,0,0,0-1.72.48l-3,4.57a10.81,10.81,0,0,0-3.34-.91l-.51-5.28A1.29,1.29,0,0,0,205.66,34l-3.57,0c-.56-.21-1.15.33-1.36.88l-1.19,5.4a11.12,11.12,0,0,0-3.41.59l-2.6-4.81a1.9,1.9,0,0,0-1.66-.64l-3.45,1.35a1.27,1.27,0,0,0-.82,1.46l1.08,5.13c-1,.52-1.94,1.41-2.91,1.94L181.6,42a1.22,1.22,0,0,0-1.69.11l-1.64,1.49-.91.84,0,0a1.21,1.21,0,0,0-.24,1.65l3,4.46a15.48,15.48,0,0,0-2.21,3.1l-5.18-1.74a1.67,1.67,0,0,0-1.74.86l-1.46,3.13a1.63,1.63,0,0,0,.67,1.91l4.38,2.83c-.43,1.11-.48,2.24-.91,3.35l-5.28.51a1.65,1.65,0,0,0-1.2,1.45L167,69.31a1.64,1.64,0,0,0,1,1.56l5.42.81a21.72,21.72,0,0,0,.57,3.78l-4.82,2.6a1.19,1.19,0,0,0-.64,1.67L169.75,83a1.76,1.76,0,0,0,1.65,1l5.32-1.26,1.56,2.89-3.39,4.17a1.77,1.77,0,0,0,.11,1.7l2.51,2.74a1.42,1.42,0,0,0,1.67.27l4.47-3c.91.61,2,1.41,2.91,2l-1.36,5.21a1.26,1.26,0,0,0,.68,1.53l3.3,1.66a1.62,1.62,0,0,0,1.72-.49L193.73,97c1.13.05,2.24.48,3.36.53l.31,5.47a1.64,1.64,0,0,0,1.45,1.19l3.56.35a2.26,2.26,0,0,0,1.37-1.25l1-5.22c1.32-.13,2.46-.46,3.78-.58l2.42,4.62a1.29,1.29,0,0,0,1.67.64l3.24-1.17a1.53,1.53,0,0,0,1-1.65l-1.08-5.12a13.15,13.15,0,0,0,2.91-1.94l4.17,3.39a1.26,1.26,0,0,0,1.88.08l2.34-2.14.21-.19a1.33,1.33,0,0,0,.46-1,1.29,1.29,0,0,0-.38-.92l-3-4.47a9.25,9.25,0,0,0,2.21-3.09l5.19,1.74a1.28,1.28,0,0,0,1.53-.68L235,82.36a1.9,1.9,0,0,0-.49-1.72l-4.56-3a9.44,9.44,0,0,0,.71-3.17l5.49-.69c.57-.16,1.16-.7,1.18-1.08l.17-3.75A1.28,1.28,0,0,0,236.26,67.56ZM202,77.57a9,9,0,1,1,9-9A9,9,0,0,1,202,77.57Z"
     id="path82" />
</svg>
