<svg id="ICONS" xmlns="http://www.w3.org/2000/svg" viewBox="0 0 400 140"><defs><style>.cls-1{fill:#4d4e4e;}.cls-2{fill:#7750a3;}.cls-3{fill:#9273b6;}.cls-4{fill:#5c2d91;}.cls-5{fill:#80bceb;}.cls-6{fill:#aad2f2;}.cls-7{fill:#2b6dcf;}.cls-8{fill:#2b8fde;}.cls-9{fill:#f1f2f2;}.cls-10{fill:#58595b;}.cls-11{fill:none;stroke:#58595b;stroke-miterlimit:10;stroke-width:2px;}.cls-12{fill:#55a5e4;}.cls-13{fill:#4d4d4d;}</style></defs><title>BotFramework-Developing-publish</title><polygon class="cls-1" points="276.88 90.13 257.63 108 252.13 108 260.38 84.63 269.47 80.5 276.88 90.13"/><polygon class="cls-1" points="291.25 90.13 310.5 108 316 108 307.75 84.63 298.66 80.5 291.25 90.13"/><polygon class="cls-1" points="289.13 100 279.13 100 282.13 94 286.13 94 289.13 100"/><path class="cls-2" d="M274,55H256.24a58.86,58.86,0,0,0-1,10.13A39.31,39.31,0,0,0,257,77h17Z"/><path class="cls-3" d="M285.25,28V94h-8.12s-11.17-11.39-11-28.37A57.55,57.55,0,0,1,268.84,50c.3-1,.61-2,1-3,0-.1.07-.2.11-.3A35.64,35.64,0,0,1,285.25,28Z"/><path class="cls-2" d="M302.25,65.63c.17,17-11,28.37-11,28.37h-8V28c2.95,1.13,10.76,6.49,15.21,18.7,0,.1.08.2.11.3.36,1,.67,2,1,3A57.55,57.55,0,0,1,302.25,65.63Z"/><path class="cls-4" d="M280.13,77H267.75A39.35,39.35,0,0,1,266,65.13,59.64,59.64,0,0,1,267,55h12.38a59.64,59.64,0,0,0-.95,10.13A39.35,39.35,0,0,0,280.13,77Z"/><path class="cls-4" d="M298.34,46.7c-4.45-12.21-12.26-17.57-14.21-18.7-2,1.13-9.76,6.49-14.21,18.7,0,.1-.08.2-.11.3h28.64C298.41,46.9,298.38,46.8,298.34,46.7Z"/><path class="cls-5" d="M242.85,18.9A5.88,5.88,0,0,1,242,19H135c-.33,0-.64,0-.93,0l-1.1-.11V49.27l.87.26,16-6.56a6.45,6.45,0,0,1,2.64-.55,6.58,6.58,0,0,1,6,3.85,6.54,6.54,0,0,1-3.28,8.65l-19,9.42a6.56,6.56,0,0,1-2.21.58l-.55,0c-.15,0-.3,0-.45,0V94a2,2,0,0,0,2,2H166c1.65-5.23,6.09-9,11.3-9s9.65,3.77,11.3,9H209c1.65-5.23,6.09-9,11.3-9s9.65,3.77,11.3,9H242a2,2,0,0,0,2-2V18.72Z"/><polygon class="cls-6" points="244 61 200 16.63 244 17 244 61"/><path class="cls-7" d="M83.5,100.43V139H94.58c1.54-13.16,3.6-30.57,3.94-32.83.43-2.76,4.7-2.76,5.12,0,.35,2.26,2.74,19.67,4.45,32.83h10.4V98h6l-.33-12.33-.67-25.2,8.42,2.19a4.54,4.54,0,0,0,1.93.25,4.49,4.49,0,0,0,1.48-.38l19-9.45a4.54,4.54,0,1,0-3.75-8.27L134,51.64,118.08,47c-.93-.28-1.91-.57-2.94-.86l0,0c-2.06-.58-4.18-1.16-5.79-1.59l-2.7-.72-6,12.48h-.1l-6-12.48s-5.77,1.3-9.89,2.39L83,46.6A8.84,8.84,0,0,0,77.48,51,11.43,11.43,0,0,0,76.2,55.4c-.61,6.36-.6,20.59-1.12,26.31-.19,2-.2,8.56,2.07,11.48A88.76,88.76,0,0,0,83.5,100.43Z"/><path class="cls-8" d="M154.36,53.08l-19,9.45a4.49,4.49,0,0,1-1.48.38,4.54,4.54,0,0,1-1.93-.25l-8.42-2.19.67,25.2L124.5,98l-47-47A8.84,8.84,0,0,1,83,46.6l1.63-.44c4.12-1.09,9.89-2.39,9.89-2.39l6,12.48h.1l6-12.48,2.7.72c1.61.43,3.73,1,5.79,1.59l0,0c1,.29,2,.58,2.94.86L134,51.64l16.63-6.83a4.54,4.54,0,1,1,3.75,8.27Z"/><rect class="cls-9" x="159" y="37" width="50" height="38" transform="translate(240 -128) rotate(90)"/><path class="cls-4" d="M202,30H166a2,2,0,0,0-2,2V80a2,2,0,0,0,2,2h36a2,2,0,0,0,2-2V32A2,2,0,0,0,202,30Zm0,50H166V32h36Z"/><polygon class="cls-5" points="191.88 39.29 202.95 28.22 196.1 28.47 195.96 24.47 210.04 23.96 209.53 38.04 205.53 37.9 205.78 31.05 194.71 42.12 191.88 39.29"/><polygon class="cls-10" points="197 25.44 197.07 27.44 205.45 27.13 193.29 39.29 194.71 40.71 206.87 28.54 206.56 36.93 208.56 37 209 25 197 25.44"/><line class="cls-11" x1="172" y1="44" x2="188" y2="44"/><line class="cls-11" x1="172" y1="52" x2="194" y2="52"/><line class="cls-11" x1="172" y1="60" x2="194" y2="60"/><line class="cls-11" x1="172" y1="68" x2="194" y2="68"/><polygon class="cls-7" points="296 112 296 128 290 128 290 134 312 134 312 112 296 112"/><polygon class="cls-7" points="270 128 270 112 255 112 255 134 277 134 277 128 270 128"/><rect class="cls-8" x="272" y="104" width="22" height="22"/><polygon class="cls-12" points="294 104 294 126 272 104 294 104"/><rect class="cls-13" x="122" y="15" width="133" height="5"/><ellipse class="cls-7" cx="100.5" cy="28.46" rx="10" ry="12.46"/><path class="cls-13" d="M166.3,95H135a1,1,0,0,1-1-1V64.9l-.55,0a6.58,6.58,0,0,1-2.11-.35l-.34-.09V94a4,4,0,0,0,4,4h30.44A14.61,14.61,0,0,1,166.3,95Z"/><ellipse class="cls-2" cx="177.25" cy="100.5" rx="10" ry="11.5"/><path class="cls-2" d="M197,129.86a3.07,3.07,0,0,1-2.87,3H160.45a3.07,3.07,0,0,1-3-3c-.41-8.21-1.5-18.62,8.49-21.1a14.09,14.09,0,0,0,9.42,5.4,13.3,13.3,0,0,0,1.55.09,13.94,13.94,0,0,0,11-5.61C198.53,110.9,197.42,121.52,197,129.86Z"/><path class="cls-13" d="M209.3,95H188.2a14.61,14.61,0,0,1,.84,3h19.43A14.61,14.61,0,0,1,209.3,95Z"/><path class="cls-13" d="M242,17H135c-2.21,0-4-1.19-4,1V48.68l2.87.84.13-.05V19.91c.32,0,.66.05,1,.05H242a6.78,6.78,0,0,0,1-.08V94a1,1,0,0,1-1,1H231.2a14.61,14.61,0,0,1,.84,3H242a4,4,0,0,0,4-4V17C246,14.79,244.19,17,242,17Z"/><ellipse class="cls-4" cx="220.25" cy="100.5" rx="10" ry="11.5"/><path class="cls-4" d="M240,129.86a3.07,3.07,0,0,1-3,3h-33.6a3.07,3.07,0,0,1-3-3c-.32-6.36-1-14,3.29-18.32a10.84,10.84,0,0,1,5.2-2.78,14,14,0,0,0,11,5.49,10.92,10.92,0,0,0,1.29-.07,14,14,0,0,0,9.76-5.54C241.53,110.9,240.42,121.52,240,129.86Z"/></svg>