<?xml version="1.0" encoding="UTF-8" standalone="no"?>
<svg
   xmlns:dc="http://purl.org/dc/elements/1.1/"
   xmlns:cc="http://creativecommons.org/ns#"
   xmlns:rdf="http://www.w3.org/1999/02/22-rdf-syntax-ns#"
   xmlns:svg="http://www.w3.org/2000/svg"
   xmlns="http://www.w3.org/2000/svg"
   xmlns:sodipodi="http://sodipodi.sourceforge.net/DTD/sodipodi-0.dtd"
   xmlns:inkscape="http://www.inkscape.org/namespaces/inkscape"
   id="ICONS"
   viewBox="0 0 400 140"
   version="1.1"
   sodipodi:docname="disa-framework-intelligence-speech.svg"
   inkscape:version="0.92.1 r15371">
  <metadata
     id="metadata79">
    <rdf:RDF>
      <cc:Work
         rdf:about="">
        <dc:format>image/svg+xml</dc:format>
        <dc:type
           rdf:resource="http://purl.org/dc/dcmitype/StillImage" />
        <dc:title>bot-framework-intelligence-speech</dc:title>
      </cc:Work>
    </rdf:RDF>
  </metadata>
  <sodipodi:namedview
     pagecolor="#ffffff"
     bordercolor="#666666"
     borderopacity="1"
     objecttolerance="10"
     gridtolerance="10"
     guidetolerance="10"
     inkscape:pageopacity="0"
     inkscape:pageshadow="2"
     inkscape:window-width="1903"
     inkscape:window-height="1096"
     id="namedview77"
     showgrid="false"
     inkscape:zoom="2.397092"
     inkscape:cx="255.25933"
     inkscape:cy="-25.708384"
     inkscape:window-x="2489"
     inkscape:window-y="-9"
     inkscape:window-maximized="1"
     inkscape:current-layer="ICONS" />
  <defs
     id="defs4">
    <style
       id="style2">.cls-1{fill:#c0c8d4;}.cls-16,.cls-2,.cls-5{fill:none;stroke-miterlimit:10;}.cls-2{stroke:#6d6e71;}.cls-2,.cls-5{stroke-width:2px;}.cls-3{fill:#fff;}.cls-4{fill:#414042;}.cls-5{stroke:#0050c5;}.cls-6{fill:#b9d532;}.cls-7{fill:#2a6dcf;}.cls-8{fill:#ddec85;}.cls-9{fill:#558ad8;}.cls-10{fill:#4d4e4e;}.cls-11{fill:#e8f2ad;}.cls-12{fill:#7750a3;}.cls-13{fill:#9273b6;}.cls-14{fill:#6d6e71;}.cls-15{fill:#939598;}.cls-16{stroke:#58595b;}.cls-17{fill:#58595b;}</style>
  </defs>
  <title
     id="title6">bot-framework-intelligence-speech</title>
  <polygon
     class="cls-1"
     points="290.5 15 258.17 15 242 43 258.17 71 290.5 71 306.66 43 290.5 15"
     id="polygon8" />
  <polygon
     class="cls-1"
     points="290.33 73 258 73 241.83 101 258 129 290.33 129 306.5 101 290.33 73"
     id="polygon10" />
  <polygon
     class="cls-1"
     points="239.5 44 207.17 44 191 72 207.17 100 239.5 100 255.66 72 239.5 44"
     id="polygon12" />
  <line
     class="cls-2"
     x1="72"
     y1="30"
     x2="72"
     y2="112"
     id="line14" />
  <polygon
     class="cls-1"
     points="88 78 55.67 78 39.5 106 55.67 134 88 134 104.17 106 88 78"
     id="polygon16" />
  <polygon
     class="cls-1"
     points="88 63 55.67 63 39.5 35 55.67 7 88 7 104.17 35 88 63"
     id="polygon18" />
  <polygon
     class="cls-3"
     points="174 44 141.67 44 125.5 72 141.67 100 174 100 190.17 72 174 44"
     id="polygon20" />
  <polygon
     class="cls-3"
     points="314.1 108.5 293.02 72 314.1 35.5 356.25 35.5 377.32 72 356.25 108.5 314.1 108.5"
     id="polygon22" />
  <path
     class="cls-4"
     d="M239.09,86.61h-4.36l-3.56-9.42H216.92l-3.35,9.42h-4.38L222.07,53h4.08Zm-9.21-13L224.6,59.33a13.71,13.71,0,0,1-.52-2.25H224a12.55,12.55,0,0,1-.54,2.25l-5.23,14.32Z"
     id="path24" />
  <line
     class="cls-5"
     x1="260"
     y1="87"
     x2="288"
     y2="87"
     id="line26" />
  <line
     class="cls-5"
     x1="260"
     y1="96"
     x2="288"
     y2="96"
     id="line28" />
  <line
     class="cls-5"
     x1="260"
     y1="105"
     x2="288"
     y2="105"
     id="line30" />
  <line
     class="cls-5"
     x1="260"
     y1="113"
     x2="279"
     y2="113"
     id="line32" />
  <polygon
     class="cls-6"
     points="354 86.5 354 97 342 85.75 354 86.5"
     id="polygon34" />
  <polygon
     class="cls-7"
     points="316 75 316 89 329 75.63 316 75"
     id="polygon36" />
  <path
     class="cls-6"
     d="M356,67h-4V79a5,5,0,0,1-5,5H327v4a3,3,0,0,0,3,3h26a3,3,0,0,0,3-3V70A3,3,0,0,0,356,67Z"
     id="path38" />
  <path
     class="cls-8"
     d="M353,69h-1V79a5,5,0,0,1-5,5H329v4a1,1,0,0,0,1,1h26a1,1,0,0,0,1-1V70C357,69.51,356.62,69.09,353,69Z"
     id="path40" />
  <rect
     class="cls-7"
     x="310"
     y="50"
     width="40"
     height="32"
     rx="3"
     ry="3"
     id="rect42" />
  <path
     class="cls-9"
     d="M350,53V78L322,50h25A3,3,0,0,1,350,53Z"
     id="path44" />
  <path
     class="cls-7"
     d="M268,21v8l-3,2-3-2V21c-2.92,1.17-6,4.5-6,8,0,4,3.09,6.84,6,8V64a3,3,0,0,0,6,0V37c2.91-1.16,6-4,6-8C274,25.5,270.92,22.17,268,21Z"
     id="path46" />
  <path
     class="cls-10"
     d="M284,41V30l2-3-2.5-8h-2L279,27l2,3V41a4.16,4.16,0,0,0-3,3.33V64a3.76,3.76,0,0,0,3.25,3h2.5A3.76,3.76,0,0,0,287,64V44.33A4.16,4.16,0,0,0,284,41Z"
     id="path48" />
  <rect
     class="cls-11"
     x="280"
     y="44"
     width="1"
     height="20"
     id="rect50" />
  <rect
     class="cls-11"
     x="284"
     y="44"
     width="1"
     height="20"
     id="rect52" />
  <circle
     class="cls-3"
     cx="265"
     cy="63.5"
     r="1.5"
     id="circle54" />
  <path
     class="cls-12"
     d="M90.83,106a19,19,0,1,1-19-19A18.94,18.94,0,0,1,90.83,106Z"
     id="path56" />
  <path
     class="cls-13"
     d="M90.83,106a18.94,18.94,0,0,1-5.6,13.46L58.37,92.6A19,19,0,0,1,90.83,106Z"
     id="path58" />
  <path
     class="cls-12"
     d="M90.83,35a19,19,0,1,1-19-19A18.94,18.94,0,0,1,90.83,35Z"
     id="path60" />
  <path
     class="cls-13"
     d="M90.83,35a18.94,18.94,0,0,1-5.6,13.46L58.37,21.6A19,19,0,0,1,90.83,35Z"
     id="path62" />
  <path
     class="cls-14"
     d="M176.83,72a19,19,0,1,1-19-19A18.94,18.94,0,0,1,176.83,72Z"
     id="path64" />
  <path
     class="cls-15"
     d="M176.83,72a18.94,18.94,0,0,1-5.6,13.46L144.37,58.6A19,19,0,0,1,176.83,72Z"
     id="path66" />
  <line
     class="cls-16"
     x1="129.5"
     y1="84"
     x2="103.94"
     y2="98.47"
     id="line68" />
  <polygon
     class="cls-17"
     points="104.81 93.27 105.77 93.58 104.28 98.28 109.07 99.42 108.84 100.39 103 99 104.81 93.27"
     id="polygon70" />
  <line
     class="cls-16"
     x1="129.5"
     y1="57"
     x2="103.94"
     y2="42.53"
     id="line72" />
  <polygon
     class="cls-17"
     points="108.84 40.61 109.08 41.58 104.28 42.72 105.77 47.42 104.81 47.73 103 42 108.84 40.61"
     id="polygon74" />
</svg>
